<svg width="24" height="24" viewBox="0 0 24 19" fill="none" xmlns="http://www.w3.org/2000/svg">
<path d="M11.2563 18.0415C11.4781 18.2262 11.7628 18.3176 12.0506 18.2965C12.3389 18.2775 12.6093 18.1499 12.8073 17.9395L22.9158 7.2363C23.0199 7.1126 23.0966 6.96819 23.1406 6.81265C23.1847 6.65711 23.1953 6.49397 23.1716 6.33405V6.32805C23.1473 6.14345 23.0752 5.96842 22.9623 5.8203C22.9331 5.7783 22.2948 4.9263 21.5448 3.92655L21.2943 3.5913L20.5196 2.56005L20.1911 2.1213C19.6211 1.3608 19.1778 0.769799 19.1411 0.718799C19.1193 0.685108 19.0942 0.653699 19.0661 0.625049C18.9593 0.485499 18.8218 0.37235 18.6643 0.294329C18.5069 0.216307 18.3336 0.175498 18.1578 0.175049H5.83009C5.65553 0.17811 5.48391 0.220578 5.32807 0.29928C5.17222 0.377982 5.03617 0.490883 4.93009 0.629549L1.03759 5.76855C1.00366 5.81163 0.971629 5.85617 0.941591 5.90205C0.797088 6.10915 0.73088 6.36087 0.754784 6.61226C0.778687 6.86366 0.891147 7.09839 1.07209 7.27455L11.1423 17.9335C11.1641 17.9575 11.2308 18.0198 11.2563 18.0415ZM2.74459 6.85905H7.54984L10.9961 15.5898L2.74459 6.8598V6.85905ZM8.38009 6.10905L11.5751 1.67505H12.3618L15.5561 6.10905H8.38009ZM8.35609 6.85905H15.5801L11.9681 16.0098L8.35609 6.8598V6.85905ZM16.3863 6.85905H21.2126L12.9213 15.6385L16.3863 6.85905ZM21.5628 6.48855L21.5816 6.46905C21.5753 6.46056 21.5691 6.45206 21.5628 6.44355V6.48855ZM21.3123 6.1098H16.4801L13.2851 1.67505H17.9831L19.3203 3.4593L20.0973 4.48905L20.3673 4.84905L21.3123 6.10905V6.1098ZM7.45609 6.1098H2.65834L6.01984 1.67505H10.6503L7.45534 6.10905L7.45609 6.1098Z"/>
</svg>
