<svg width="18" height="24" viewBox="0 0 18 24" fill="none" xmlns="http://www.w3.org/2000/svg">
<path d="M13.8768 0.101991C14.0236 0.187099 14.1372 0.319476 14.1991 0.477498C14.2609 0.635519 14.2673 0.809843 14.2173 0.971991L11.5158 9.74999H16.5003C16.6468 9.74993 16.7901 9.79277 16.9125 9.87322C17.0349 9.95366 17.1311 10.0682 17.1892 10.2027C17.2472 10.3372 17.2646 10.4857 17.2393 10.63C17.2139 10.7742 17.1468 10.9079 17.0463 11.0145L5.0463 23.7645C4.93019 23.888 4.77568 23.9685 4.60796 23.9929C4.44024 24.0173 4.26919 23.9842 4.1227 23.8989C3.97622 23.8137 3.86292 23.6813 3.80129 23.5234C3.73965 23.3655 3.73331 23.1914 3.7833 23.0295L6.4848 14.25H1.5003C1.35382 14.25 1.21052 14.2072 1.08811 14.1268C0.965693 14.0463 0.869515 13.9318 0.811447 13.7973C0.753379 13.6628 0.735963 13.5143 0.761349 13.37C0.786735 13.2257 0.853812 13.0921 0.954299 12.9855L12.9543 0.235491C13.0703 0.11219 13.2245 0.0317441 13.392 0.00723405C13.5595 -0.017276 13.7304 0.015591 13.8768 0.100491V0.101991ZM3.2358 12.75H7.5003C7.61767 12.75 7.73341 12.7775 7.83821 12.8304C7.943 12.8832 8.03393 12.9599 8.10367 13.0543C8.17342 13.1487 8.22003 13.2582 8.23977 13.3739C8.2595 13.4896 8.25181 13.6083 8.2173 13.7205L6.1653 20.385L14.7633 11.25H10.5003C10.3829 11.25 10.2672 11.2225 10.1624 11.1696C10.0576 11.1168 9.96667 11.0401 9.89692 10.9457C9.82718 10.8513 9.78057 10.7418 9.76083 10.6261C9.7411 10.5104 9.74879 10.3917 9.7833 10.2795L11.8353 3.61499L3.2358 12.75Z"/>
</svg>
